<?xml version="1.0" encoding="UTF-8"?>
<svg id="_Слой_1" xmlns="http://www.w3.org/2000/svg" version="1.1" viewBox="0 0 1000 200">
  <!-- Generator: Adobe Illustrator 30.2.1, SVG Export Plug-In . SVG Version: 2.1.1 Build 1)  -->
  <defs>
    <style>
      .st0 {
        fill: #fff;
        stroke: #fff;
      }

      .st0, .st1 {
        isolation: isolate;
        stroke-width: .4px;
      }

      .st1 {
        fill: #edc01e;
        stroke: #edc01e;
      }

      .st2 {
        fill-opacity: 0;
      }
    </style>
  </defs>
  <path class="st2" d="M0,0l48.3.2c-1.8.4-3.2,1.3-4.1,2.6-1.5,1.5-2,4-1.5,7.4l2.4,3.9,3.3,1.9h37.3l.4.4h238.7l.4-.4h39.1l.4.4,5.5.4,7.4,1.9,10,4.4c7.2,4.1,13.4,9.3,18.6,15.4,5.8,6.6,10.4,14.3,13.6,23.1,1.3.3,2.1,0,2.4-.7h2.2l1.5-1.1h4.4l1.5-.7,4.2-.4c-5.8-16.1-14.5-29.3-26.4-39.6-6-5.4-12.9-9.8-20.7-13.3-6.1-2.8-13.1-4.6-21.2-5.4l632.2-.2-.2,71.9c-.4-2.4-1.5-4.2-3.3-5.2l-3.7-1.5h-2.6c-3.1.5-5.2,1.9-6.5,4.3l-1.1,4.1v37.4c-.8,2.7-2.3,4.9-4.2,6.5l-6.6,3.3-7,.4-4.8-1.1c-2.3-.9-4.2-2.1-5.7-3.9l-3-5.2-.7-3.7v-34.4c-.4-2.3-1.3-4.1-2.8-5.4-1.5-1.6-3.9-2.3-7-2.2-2.5.4-4.4,1.5-5.7,3.1l-1.8,4.4v34.4l.4.4.4,4.8,2.6,8.1c1.7,3.4,3.8,6.3,6.5,8.7,2.9,2.8,6.5,4.9,10.7,6.3l6.6,1.5h8.9l8.5-2.2,6.1-3.3c.3,1.7,1.2,2.9,2.8,3.7,1.5,1,3.4,1.5,5.9,1.5,2.8-.4,4.8-1.6,6.1-3.5l1.3-3.5.2,70.4-7.7-.2c1.8-.4,3.2-1.2,4.1-2.6,1.5-1.5,2-4,1.5-7.4l-1.8-3.5-4.2-2.2h-473.3l-.4-.4h-2.6l-.4-.4-6.6-.7-11.1-2.6-12.9-4.8c-8.7-4-16-9.3-21.9-16.1l-5.9-8.1-5-10.9-1.8.4-1.5,1.1h-2.2l-1.5,1.1h-4.8l-1.1.7c-1.5-.4-2.4-.2-2.8.6,4.4,13.6,11.5,24.5,21.2,32.8,14.3,12.6,33.6,20.3,57.7,23.1l-514.9.2.2-50c.3,3.1,1.6,5.3,3.7,6.7l3.7,1.5h2.6c3.1-.5,5.2-1.9,6.5-4.3l1.1-3.3v-13.9h67.3l.2.2v14.4c.5,2.4,1.7,4.2,3.5,5.4l3.7,1.5h2.6c2.3-.4,4.1-1.3,5.3-2.8,1.1-1.2,1.9-2.8,2.2-4.8v-22.6c-.4-2.3-1.3-4.1-2.8-5.4-1.8-1.7-4.4-2.5-7.9-2.2L59.8,42.8l-3.1-4.3-3.7-1.5h-3c-2.8.6-4.8,2.1-6.1,4.3L11.1,120.4c-4.6-.3-7.8,1-9.6,3.9l-1.3,4.3L0,0ZM950.2,34.4l-3.7,1.5c-1.7,1-2.8,2.7-3.3,5.2-.3,4.9.7,8.8,3,11.5l6.6,5.6,6.6,2.6,3.7.7h8.9c.3-.5,1-.6,2.2-.4,3.9-.7,7.4-2.2,10.3-4.4l5.5-6.3,1.5-4.4c.5-3.7,0-6.4-1.5-8.1-1-2-2.7-3.1-5.2-3.3-2.5,0-4.3.5-5.5,1.5l-3,3.7-.7,4.8-1.8,1.9-4.4,1.5h-3.7l-4.4-1.5-2.2-1.9c0-2.7-.5-4.8-1.5-6.3-1.2-2.5-3.7-3.7-7.4-3.7ZM316.5,64.8l-6.3,1.5-5.9,3.3-.7-.7c-1-2-2.7-3.1-5.2-3.3-3-.3-5.1.1-6.3,1.1-2.2,1.2-3.6,3.2-4.1,5.9v57.4l1.1,3c1.2,2,3.3,3.2,6.3,3.7,3.4.3,5.9-.5,7.4-2.2,1.2-1,2-2.3,2.2-4.1v-36.3l.4-.4v-3.3l2.2-4.8,4.4-3.7,4.4-1.1,4.4.4,3.7,1.9,2.6,3.7,1.1,4.4v38.9l1.5,3.3c1.2,1.7,3.2,2.9,5.9,3.3,3,.3,5.3-.4,7-1.9l1.8-2.2,1.1-3.7v-38.1l2.6-5.6,3.3-3,4.8-1.5,4.8.4,3.7,1.9c1.5,1,2.5,2.6,3,4.8l.7,4.1v38.1l1.1,3c1.2,2,3.3,3.2,6.3,3.7h3l3-1.1,3-3,.7-2.2v-42.2l-1.1-5.2-1.5-4.1-3.3-5.2-5.9-5.6-5.2-2.2-5.2-1.1c-11.3-.5-19.4,2.2-24.3,8.1-4.4-5.9-11.9-8.6-22.5-8.1ZM433.1,64.8l-.4.4-4.4.4-6.3,1.9-8.1,4.8c-3.7,3-6.8,6.6-9.2,10.7l-3,7-1.5,7v61.1l1.1,3c1.2,2,3.2,3.2,5.9,3.7,3.2.3,5.6-.4,7.4-1.9,1.2-1,2.1-2.5,2.6-4.4v-28.9c2.5,2,5.4,3.7,8.9,5.2l8.9,2.2h7l5.5-1.1c4.7-1.5,8.7-3.7,12.2-6.7,2.7-2.5,5.1-5.3,7-8.5l3.3-7.8,1.5-7v-8.9l-1.1-5.9c-1.5-5.2-3.7-9.5-6.6-13-3.4-4.4-7.7-7.9-12.9-10.4l-8.9-2.6-8.9-.4ZM594.2,64.8l-.4.4-4.4.4-6.3,1.9-7.7,4.4c-3.9,3-7.1,6.8-9.6,11.5l-1.8,4.4-1.8,8.1v10.4l.7,4.1,2.2,6.7,4.4,7c2.5,3,5.5,5.6,9.2,7.8l7.4,3.3,8.9,1.9h7.4l7-1.5c4.9-1.2,9.2-3.3,12.9-6.3,1.7-1,2.7-2.7,3-5.2l-.7-3.3-.7-1.1c-1.2-2.2-3.2-3.6-5.9-4.1l-4.4.7c-3,2.5-6.5,4.2-10.7,5.2h-8.1l-1.8-.4c-3.2-1-5.8-2.3-7.7-4.1-3-2.5-5.1-5.6-6.3-9.3h44.3l3-1.1c2-1.2,3.2-3.2,3.7-5.9l-.7-8.9-2.2-7.8c-1.5-3.4-3.3-6.4-5.5-8.9-3-3.4-6.6-6.2-11.1-8.1l-7-1.9-8.9-.4ZM741.1,64.8l-.4.4-4.4.4-6.3,1.9c-3.4,1.2-6.3,3-8.5,5.2-3.2,2.7-5.9,5.9-8.1,9.6l-3,7-1.5,6.7v10.4l1.5,6.7c1.2,4.2,3.2,7.9,5.9,11.1s5.9,5.9,9.6,8.1l7.7,3.3,7.4,1.5h7.4l7.4-1.5c3.7-1.2,7-3,10-5.2l3.7-3.7.7-2.2v-2.2l-1.1-3c-1.2-2.2-3.1-3.6-5.5-4.1-2.2-.3-3.8,0-4.8.7l-7,4.4-3.3.7h-7l-1.8-.4-6.3-3c-4.2-3-6.8-7.4-7.7-13.3v-6.7c.5-.5.6-1.2.4-2.2.7-3.2,2-5.9,3.7-8.1,2.7-3.4,6.6-5.7,11.8-6.7h5.2l4.4,1.1c3.4,1.7,6.4,4,8.9,6.7l2.6.7h2.2l3-1.1c2-1.2,3.2-3.1,3.7-5.6.3-3.2-.5-5.3-2.2-6.3-3.4-4-7.6-7-12.5-9.3l-9.6-2.2h-5.9ZM119.1,65.2l-3.3.7-1.8,1.1c-1.7,1-2.8,2.7-3.3,5.2v57.8l1.5,3.3c1.2,1.7,3.3,2.9,6.3,3.3l4.8-.7,1.1-.7c1.7-1,2.8-2.6,3.3-4.8l.4-33,14.4,21.1c1.5,2.2,3.8,3.7,7,4.4h2.6l4.1-1.9,4.4-5.2,12.9-18.5v31.5l1.5,4.1,3.7,3,3,.7c2.7,0,4.8-.6,6.3-1.9s2.5-3,3-5.2v-57l-1.8-4.1-3-2.6-3.3-.7-2.6.4-3.3,1.5-4.8,5.6-21,30.7-23.6-33.7c-1.7-2.5-4.4-4-8.1-4.4ZM212.8,65.2l-4.4,1.9c-1.7,1.2-2.8,3.2-3.3,5.9v34.4l.4.4v3l3,10,4.8,7c2.5,2.7,5.6,4.9,9.6,6.7l9.6,2.6h8.9c.3-.5,1-.6,2.2-.4l6.3-1.9,5.9-3.3.4,1.5c1.2,2,3.4,3.2,6.6,3.7,2.5,0,4.4-.5,5.9-1.5,1.7-1.2,2.8-3.1,3.3-5.6v-57.4l-1.1-3c-1.2-2.2-3.2-3.6-5.9-4.1h-2.6l-3.3,1.1-3.3,3.3-1.1,4.1v37.4l-2.6,4.8-3,2.6-3,1.5-4.4,1.1-7.4-.4-6.6-3.3c-2-1.7-3.4-3.8-4.4-6.3l-.7-3.7v-34.4c-.3-2.2-1-3.8-2.2-4.8-1.5-2-3.9-3-7.4-3ZM490.6,65.2l-4.4,1.9c-1.7,1.2-2.8,3.2-3.3,5.9v34.4l.4.4v3l3,10,4.8,7c2.5,2.7,5.6,4.9,9.6,6.7l9.6,2.6h8.9c.3-.5,1-.6,2.2-.4l6.3-1.9,5.9-3.3.4,1.5c1.2,2,3.4,3.2,6.6,3.7,2.5,0,4.4-.5,5.9-1.5,1.7-1.2,2.8-3.1,3.3-5.6v-57.4l-1.1-3c-1.2-2.2-3.2-3.6-5.9-4.1h-2.6l-3.3,1.1-3.3,3.3-1.1,4.1v37.4l-2.6,4.8-3,2.6-3,1.5-4.4,1.1-7.4-.4-6.6-3.3c-2-1.7-3.4-3.8-4.4-6.3l-.7-3.7v-34.4c-.3-2.2-1-3.8-2.2-4.8-1.5-2-3.9-3-7.4-3ZM648.1,65.2l-4.4,1.5c-2.2,1.2-3.6,3.2-4.1,5.9v57.4l1.5,3.3c1.2,1.7,3.3,2.9,6.3,3.3h32.8l.4-.4,4.4-.4,4.8-1.5,5.5-3.3c3.9-2.7,6.4-6.9,7.4-12.6v-5.9l-.4-1.9c-.5-2.7-1.5-4.8-3-6.3l-5.5-5.2,4.8-5.6,1.8-6.7c0-5.4-1.1-9.6-3.3-12.6-3.2-4.7-8-7.7-14.4-8.9h-3.3l-.4-.4h-31ZM792,65.2l-4.1,1.1c-2.2,1.2-3.6,3.2-4.1,5.9v57.8l.7,2.6,1.1,1.5,2.6,1.9,2.6.7c3,.3,5.3-.4,7-1.9,1.5-1.2,2.5-3.1,3-5.6v-20.7l.4-.4h4.1l23.6,25.9,2.2,1.5,4.1,1.1,5.2-1.1c1.7-1,3-2.6,3.7-4.8.3-2.5,0-4.3-.7-5.6l-22.9-24.8,20.7-22.2,1.5-3v-3l-1.1-3-2.6-3-3.7-1.1-4.4.7-1.5.7-19.9,22.2-3,3h-5.5v-18.9l-1.1-3.3-2.6-3-2.6-1.1-2.6-.4ZM859.8,65.2l-4.4,1.9c-1.7,1.2-2.8,3.2-3.3,5.9v34.4l.4.4v3l3,10,4.8,7c2.5,2.7,5.6,4.9,9.6,6.7l9.6,2.6h8.9c.3-.5,1-.6,2.2-.4l6.3-1.9,5.9-3.3.4,1.5c1.2,2,3.4,3.2,6.6,3.7,2.5,0,4.4-.5,5.9-1.5,1.7-1.2,2.8-3.1,3.3-5.6v-57.4l-1.1-3c-1.2-2.2-3.2-3.6-5.9-4.1h-2.6l-3.3,1.1-3.3,3.3-1.1,4.1v37.4l-2.6,4.8-3,2.6-3,1.5-4.4,1.1-7.4-.4-6.6-3.3c-2-1.7-3.4-3.8-4.4-6.3l-.7-3.7v-34.4c-.3-2.2-1-3.8-2.2-4.8-1.5-2-3.9-3-7.4-3Z"/>
  <path class="st1" d="M48.5,0h319.1l.4.4h2.6l5.9,1.1,5.5,1.5,7,2.6,5.9,3c8.7,4.9,16.3,11,22.7,18.3,7.9,8.9,14.1,19.4,18.4,31.7h-3.1l-3.3,1.1h-.7c-1.4.4-2.2.3-2.6-.4l-2.6,1.5h-.7c-1-.2-1.7,0-1.8.7l-1.3-.6c-4.8-12.1-11.7-22.1-20.8-29.8-7-6.6-16-11.3-26.9-14.1l-4.1-.4-.4-.4h-3l-.4-.4h-39.1l-.4.4H86.5l-.4-.4h-37.3l-3.9-1.9-2.2-3.9v-4.4l2.4-3.9,3.3-1.9Z"/>
  <path class="st1" d="M433.6,92.6c5.2-.6,8.6.7,10.1,3.9,1.2,1.6,1.6,4.1,1.1,7.4-.7,2.1-1.8,3.8-3.5,5-1.5,1.5-4.1,2-7.7,1.5l-2.6-1.1-2.4-2.4c-1.5-1.6-2-4.1-1.5-7.8.8-2.3,2.1-4.1,3.9-5.4l2.6-1.1Z"/>
  <path class="st1" d="M451.7,140l5,10.9,2.6,4.1,9.8,10.6c5.7,4.6,12.2,8.4,19.5,11.5l14.4,4.4,10,1.9,4.8.4.4.4h473.6c2.2.6,3.9,1.8,5,3.5,1.2,1.4,1.6,3.6,1.1,6.7-.5,1.8-1.4,3.3-2.8,4.3l-3,1.5h-476.6l-.4-.4h-2.6l-.4-.4-8.5-1.1-8.1-1.9-11.4-3.7-7.7-3.3c-10.2-4.9-18.9-11.4-26-19.4l-8.1-11.5c-2.6-4.3-4.6-9.2-5.9-14.8l.9-.2c1.4.2,2.4,0,3-.7h.7c2.6.5,4.3.1,5.2-1.1h2.2l1.5-1.1,1.8-.4Z"/>
  <path class="st0" d="M949.3,34.8h3.7l3.5,1.9,1.8,3.5.4,3.7,1.7,2c2.1,1.9,5.4,2.5,10,1.9,2.4-.4,4.2-1.5,5.3-3.1l1.1-5.6,2.8-3.1c1.4-1.1,3.4-1.5,6.3-1.1,1.8.6,3.2,1.7,4.2,3.1l1.5,3.7v3c-.8,4.8-2.9,8.4-6.1,10.9-2.5,2.2-5.6,3.8-9.2,4.8l-5.9,1.1h-5.9l-5.9-1.1-4.8-1.9c-2.7-1.4-4.9-3.2-6.8-5.4l-3.3-6.7-.4-4.8c.5-2.6,1.7-4.5,3.5-5.7l2.6-1.1Z"/>
  <path class="st0" d="M51.5,37l4.8,1.5,2.4,2.4,33.2,79.8c4.5-.4,7.6.8,9.2,3.5l1.1,2.6v24.8c-.6,2-1.7,3.5-3.1,4.6-1.5,1.4-4,1.9-7.4,1.5-2.3-.6-3.9-1.8-5-3.5l-1.5-3.7v-14.3H17.5l-.2.2v14.8c-.5,2.3-1.5,3.9-3.1,5-1.5,1.4-4,1.9-7.4,1.5-2.4-.7-4.2-2-5.3-3.9l-1.1-3v-23.3l2.2-4.6,3.1-1.9,5.2-.4.6-.6L43.5,42.4l3.1-3.9,4.8-1.5ZM51.3,64.1l-22.5,56.3.4.4h45.7l-22.9-55.6c.3-1,0-1.4-.7-1.1Z"/>
  <path class="st0" d="M318.1,64.8l6.3.4,4.4,1.1c4.1,1.4,7.4,3.7,10,6.7,2.7-2.7,6-4.9,10-6.3l5.9-1.5,6.6-.4.4.4h3l6.3,1.9c3,1.4,5.5,3.1,7.6,5.4,2,2.1,3.7,4.7,4.8,7.8l1.5,4.8.4,4.4.4.4v39.6c-.5,2.6-1.7,4.5-3.5,5.7-1.3.9-3.1,1.4-5.2,1.5l-4.1-1.1-2.4-2-1.8-4.4v-39.3c-.6-3.5-2.1-6.1-4.6-7.6l-3.7-1.5h-5.5l-3.7,1.5-2,1.5-2.6,3.9-1.1,4.1v37.8c-.4,2.7-1.6,4.6-3.5,5.7-1.3.9-3.1,1.4-5.2,1.5l-3-.7-3.1-2-1.8-3.3-.4-1.9v-39.3c-.5-2.6-1.5-4.6-3.1-6.1-2.1-2.3-5.6-3.2-10.7-2.6-3.1.9-5.5,2.6-7.2,5l-1.5,2.6-.7,3v38.1c-.5,2.6-1.7,4.5-3.5,5.7-1.3.9-3.1,1.4-5.2,1.5l-4.1-1.1-2.4-2-1.8-4.4v-55.9c.4-2.8,1.6-4.8,3.5-6.1,1.5-1,3.4-1.5,5.9-1.5,2.8.4,4.8,1.6,6.1,3.5-.2.6.1.8.9.6l5.2-3,8.5-1.9Z"/>
  <path class="st0" d="M431,65.2h9.2l8.9,2.2c5.6,2.3,10.3,5.5,13.8,9.8,2.8,3.3,5.1,7.3,6.6,11.9l1.5,6.3.4,8.1-.4.4-.4,5.2-2.6,8.1c-2.4,5.1-5.6,9.4-9.8,12.8l-7.4,4.4-5.9,1.9-7.7.7-.4-.4h-3.7l-5.9-1.5c-3.9-1.4-7.2-3.4-10-5.9l-.2,28.3c-.5,2.6-1.7,4.5-3.5,5.7-1.4,1.1-3.4,1.6-5.9,1.5-2.5-.4-4.4-1.5-5.7-3.1l-1.8-4.4v-58.5l.4-.4.4-4.8,2.6-8.1c2.3-4.8,5.2-8.8,9-12l8.9-5.6,9.6-2.6ZM431.9,80.7c-3.2.7-5.8,2-7.7,3.7-3.7,3-6.2,7.1-7.4,12.6v8.1l.4,1.9,3.7,7.4,5.9,4.8,4.8,1.9c1.5-.5,2.5-.4,3,.4l5.9-.4,7.4-3.7c3.7-3,6-7.1,7-12.6v-7.4l-.4-1.9c-1-3.4-2.5-6.3-4.4-8.5-2.2-2.7-5.1-4.7-8.5-5.9l-1.8-.4h-7.7Z"/>
  <path class="st0" d="M592.2,65.2h9.6l8.5,2.2c4.8,2,8.6,4.9,11.6,8.7l2.6,3.7,3,6.7,1.8,8.9v5.9c-.4,2.3-1.5,4-3.1,5l-2.6,1.1-45.2.2c1.1,3.6,2.9,6.5,5.3,8.7,2.5,2.4,5.7,4.2,9.6,5.2l8.1.4c4.7-.8,8.5-2.6,11.4-5.2,1.3-.8,3.2-1,5.5-.7,2.3.5,3.9,1.5,5,3.1l1.5,3.3v2.2c-.5,2.4-1.6,4-3.5,5l-5.5,3.3-5.9,2.2-6.3,1.5-5.9.4-.4-.4h-4.1l-4.1-.7-6.6-2.2c-4.8-2.1-8.8-5-12-8.7-3.4-3.8-5.8-8.5-7.4-14.1l-1.1-6.3v-7.4l.4-.4.4-4.4,2.2-7c2.1-5,5.2-9.1,9-12.4l8.5-5.2,4.1-1.5,5.5-1.1ZM595,80l-6.3,1.5-4.1,2.6c-2.7,2.2-4.7,5.1-5.9,8.5l.4.7h33.9l-.4-2.2-3-5.2c-1.5-2.2-3.4-3.8-5.9-4.8l-4.8-1.1h-4.1Z"/>
  <path class="st0" d="M739.4,65.2h8.9l6.6,1.5c6.2,2.3,11.2,5.8,14.9,10.6.8,1.1,1.4,2.6,1.5,4.4-.4,2.3-1.3,4.1-2.8,5.4-1.3,1.3-3.1,2-5.5,2.2l-4.1-1.5-5.5-4.8-3-1.5-2.6-.7h-8.1c-3.7.9-6.8,2.6-9,5-4.3,3.9-6,10.5-5.2,19.6,1,5,3.2,8.9,6.5,11.7,1.8,1.6,4.1,2.9,6.6,3.7l4.1.4.4.4h3.3l5.5-1.1,7-4.4,3.7-.7c2.5.4,4.4,1.5,5.7,3.1l1.1,1.9.7,3-.7,3-2.8,3.1c-5.4,5-13.1,7.6-23.2,7.8l-.4-.4h-3.7l-4.1-.7-5.5-1.9c-4.9-2.2-9.1-5.2-12.4-9.1-3.4-3.8-5.8-8.5-7.4-14.1l-1.1-6.3v-7.4l1.1-6.3,2.2-6.3c2-4.3,4.6-7.9,7.9-10.9,2.7-2.4,5.8-4.3,9.2-5.9l3-1.1,7-1.5Z"/>
  <path class="st0" d="M117.9,65.6c4.8,0,8.1,1.5,9.8,4.6l23.1,33.5,24.7-35.6c1.7-1.9,4.4-2.8,8.1-2.6,2.7.4,4.6,1.6,5.7,3.5l1.5,4.4v54.8l-1.5,4.4-2.4,2.4c-1.4,1-3.5,1.4-6.3,1.1-2.4-.4-4.2-1.5-5.3-3.1l-1.5-3.7-.2-32.8-13.8,19.8-4.2,4.6c-1.4,1.4-3.7,1.9-7,1.5-2.3-.7-4.1-1.9-5.3-3.5l-15.3-22-.2,32.4c-.5,2.3-1.5,4.1-3.1,5.4l-3.7,1.5h-3.3c-2.5-.5-4.2-1.7-5.3-3.5l-1.5-3.7v-56.3c.4-2.7,1.6-4.6,3.5-5.7l3.7-1.5Z"/>
  <path class="st0" d="M211.9,65.6c4.3-.3,7.2.7,8.7,3.1l1.5,3.3v33l.4.4v3.3c.8,4.2,2.7,7.4,5.7,9.4l4.1,2.2,3,.7h7.7c4.3-1,7.5-3,9.8-6.1l2.2-4.8v-37.8c.4-2.4,1.5-4.2,3.1-5.4,1.5-1.4,4-1.9,7.4-1.5,2,.4,3.5,1.4,4.6,2.8l1.1,1.9.7,3v55.6c-.5,3-1.8,5.1-3.9,6.5-1.4,1-3.5,1.4-6.3,1.1-2.1-.5-3.8-1.4-5-2.8l-1.3-2.4c-5,4.2-12.3,6.2-21.8,5.9l-6.3-1.1-5.2-1.9c-3.9-1.9-7.2-4.4-9.8-7.6l-4.8-8.1-2.2-9.3v-37.4c.6-2,1.7-3.5,3.1-4.6l3.3-1.5Z"/>
  <path class="st0" d="M489.7,65.6c4.3-.3,7.2.7,8.7,3.1l1.5,3.3v33l.4.4v3.3c.8,4.2,2.7,7.4,5.7,9.4l4.1,2.2,3,.7h7.7c4.3-1,7.5-3,9.8-6.1l2.2-4.8v-37.8c.4-2.4,1.5-4.2,3.1-5.4,1.5-1.4,4-1.9,7.4-1.5,2,.4,3.5,1.4,4.6,2.8l1.1,1.9.7,3v55.6c-.5,3-1.8,5.1-3.9,6.5-1.4,1-3.5,1.4-6.3,1.1-2.1-.5-3.8-1.4-5-2.8l-1.3-2.4c-5,4.2-12.3,6.2-21.8,5.9l-6.3-1.1-5.2-1.9c-3.9-1.9-7.2-4.4-9.8-7.6l-4.8-8.1-2.2-9.3v-37.4c.6-2,1.7-3.5,3.1-4.6l3.3-1.5Z"/>
  <path class="st0" d="M646.8,65.6h34.7l3.7.7,4.8,1.9c2.4,1.3,4.4,3,6.1,5l3.3,5.9.7,3.3v5.9c-1,4.6-3,8.1-6.1,10.6l-.6.2,5.2,4.4,3.3,6.3.7,3.7v3.7l-.7,3.7-1.5,3.7-4.6,5.7-5.9,3.7-8.1,2.2h-35.4c-2.5-.5-4.2-1.7-5.3-3.5l-1.5-3.7v-55.9c.5-2.7,1.7-4.7,3.5-6.1l3.7-1.5ZM656.6,81.5v11.1h24.3l.7-.4c1.5-.7,2.3-2.1,2.6-4.1s0-3.3-.7-4.1c-.7-1.2-1.8-2.1-3.3-2.6h-23.6ZM656.6,107.4v13h22.9l3-.7,1.8-1.1,1.8-2.2c.5-2.7.3-4.6-.7-5.6-1.2-1.7-2.8-2.9-4.8-3.3h-24Z"/>
  <path class="st0" d="M790.7,65.6l4.4.4,3.9,2.8,1.5,3.3v19.8h6.1l1.7-1.7,20.1-22.8,4.4-1.9h3.3c2,.4,3.6,1.3,4.6,2.8,1.2,1.4,1.8,3.4,1.8,5.9-.6,2.4-1.7,4.3-3.3,5.6l-19.2,20.4,22.5,24.1,1.5,3.3v2.2c-.5,2.3-1.5,3.9-3.1,5l-3.7,1.5h-3.3c-3.3-.8-5.7-2.4-7.2-5l-21.6-23.5h-4.4l-.2.2v21.9c-.5,2.5-1.7,4.3-3.5,5.4-1.3.9-3.1,1.4-5.2,1.5-.3-.6-1.1-.7-2.2-.4l-2.2-1.1-2-2-1.5-4.1v-56.3c.4-2.5,1.5-4.4,3.1-5.7l3.7-1.5Z"/>
  <path class="st0" d="M858.9,65.6c4.3-.3,7.2.7,8.7,3.1l1.5,3.3v33l.4.4v3.3c.8,4.2,2.7,7.4,5.7,9.4l4.1,2.2,3,.7h7.7c4.3-1,7.5-3,9.8-6.1l2.2-4.8v-37.8c.4-2.4,1.5-4.2,3.1-5.4,1.5-1.4,4-1.9,7.4-1.5,2,.4,3.5,1.4,4.6,2.8l1.1,1.9.7,3v55.6c-.5,3-1.8,5.1-3.9,6.5-1.4,1-3.5,1.4-6.3,1.1-2.1-.5-3.8-1.4-5-2.8l-1.3-2.4c-5,4.2-12.3,6.2-21.8,5.9l-6.3-1.1-5.2-1.9c-3.9-1.9-7.2-4.4-9.8-7.6l-4.8-8.1-2.2-9.3v-37.4c.6-2,1.7-3.5,3.1-4.6l3.3-1.5Z"/>
  <path class="st0" d="M940.1,65.6c4.3-.3,7.2.7,8.7,3.1l1.5,3.3v33l.4.4v3.3c.8,4.2,2.7,7.4,5.7,9.4l4.1,2.2,3,.7h7.7c4.3-1,7.5-3,9.8-6.1l2.2-4.8v-37.8c.4-2.4,1.5-4.2,3.1-5.4,1.5-1.4,4-1.9,7.4-1.5,2,.4,3.5,1.4,4.6,2.8l1.1,1.9.7,3v55.6c-.5,3-1.8,5.1-3.9,6.5-1.4,1-3.5,1.4-6.3,1.1-2.1-.5-3.8-1.4-5-2.8l-1.3-2.4c-5,4.2-12.3,6.2-21.8,5.9l-6.3-1.1-5.2-1.9c-3.9-1.9-7.2-4.4-9.8-7.6l-4.8-8.1-2.2-9.3v-37.4c.6-2,1.7-3.5,3.1-4.6l3.3-1.5Z"/>
</svg>